<?xml version="1.0" encoding="UTF-8"?>
<!DOCTYPE svg  PUBLIC '-//W3C//DTD SVG 1.1//EN'  'http://www.w3.org/Graphics/SVG/1.1/DTD/svg11.dtd'>
<svg width="512px" height="512px" enable-background="new 0 0 328.863 328.863" version="1.1" viewBox="0 0 328.863 328.863" xml:space="preserve" xmlns="http://www.w3.org/2000/svg">
		<path d="m104.03 220.43v-89.284h-20.64v-22.88h49.121v112.16h-28.481z" fill="#909090"/>
		<path d="m239.55 137.23c0 9.76-5.28 18.4-14.08 23.201 12.319 5.119 20 15.84 20 28.32 0 20.16-17.921 32.961-45.921 32.961-28.001 0-45.921-12.641-45.921-32.48 0-12.801 8.32-23.682 21.28-28.801-9.44-5.281-15.52-14.24-15.52-24 0-17.922 15.681-29.281 40.001-29.281 24.64 0 40.161 11.68 40.161 30.08zm-59.042 49.122c0 9.441 6.721 14.721 19.041 14.721s19.2-5.119 19.2-14.721c0-9.279-6.88-14.561-19.2-14.561-12.321 0-19.041 5.281-19.041 14.561zm2.881-47.522c0 8.002 5.76 12.48 16.16 12.48s16.16-4.479 16.16-12.48c0-8.318-5.76-12.959-16.16-12.959-10.401 0-16.16 4.641-16.16 12.959z" fill="#909090"/>
		<path d="m292.86 120.93c4.735 13.975 7.137 28.592 7.137 43.5 0 74.752-60.816 135.57-135.57 135.57s-135.57-60.816-135.57-135.57c0-74.754 60.816-135.57 135.57-135.57 14.91 0 29.527 2.4 43.5 7.137v-30.169c-14.114-3.869-28.691-5.832-43.499-5.832-90.667 0-164.43 73.764-164.43 164.43s73.764 164.43 164.43 164.43 164.43-73.764 164.43-164.43c0-14.807-1.962-29.385-5.831-43.5h-30.167z" fill="#909090"/>
		<polygon points="284.66 44.111 284.66 12.582 261.99 12.582 261.99 44.111 230.65 44.111 230.65 66.781 261.99 66.781 261.99 98.309 284.66 98.309 284.66 66.781 316.19 66.781 316.19 44.111" fill="#909090"/>
</svg>
