<svg xmlns="http://www.w3.org/2000/svg" viewBox="0 0 236.62 118.29"><defs><style>.cls-1{fill:#1a2c37;}</style></defs><title>Artboard 65</title><g id="Layer_1" data-name="Layer 1"><path class="cls-1" d="M15.34,34C15.28,18.18,25.4,9.41,44,9.34,57.36,9.29,59.74,18,59.76,21.22c0,6.09-8.62,12.55-8.62,12.55s.48,3.79,7.87,3.77,14.6-4.91,14.56-17.14C73.52,6.36,58.82,0,44.28,0,32.12,0-.12,1.75,0,33.77.1,62.22,53.73,64.72,53.8,82.93c.07,19.78-22.12,25.1-29.6,25.13s-10.55-5.34-10.57-8.28c-.05-16,15.88-20.48,15.88-20.48a6.71,6.71,0,0,0-7.11-6.5C6.51,72.86.18,86.54.23,99.89c0,11.35,8.06,18.44,20.18,18.39,23.16-.08,49.28-11.39,49.19-36.5C69.51,58.29,15.41,52.16,15.34,34Z"/><path class="cls-1" d="M236.17,96.92c-.18-.45-.7-.34-1.39.23-2.62,2.17-8.63,8.31-22.71,8.37C186.44,105.61,182,63.34,182,63.34s19.54-14.6,22.59-20.48-6.66-7.19-6.66-7.19S184.25,52.3,174.56,57.19c1-7.23,8.2-23.72,8.64-33.21s-11.41-7.17-13.3-6.26c0,4.14-10.45,41.74-14.26,62.4-2.24,3.58-5.44,7.69-8.3,7.7-1.66,0-2.27-3.08-2.29-7.49,0-6.12,3.37-15.93,3.34-21.89,0-4.12-1.89-4.37-3.52-4.36l-2.67.05c-4.17,0-2.81-3.56-6.56-3.55-11.52.05-26.19,12.62-26.83,31.61C104.93,84.77,99.49,88,96.71,88s-3.64-2.69-3.65-5c0-4.1,6.62-28.42,6.62-28.42s8.43-2.16,12.11-2.87c2.78-.55,3.56-.75,4.66-2.1s3.2-4.12,4.91-6.62,0-4.42-3.13-4.41c-4.15,0-15.24,2.63-15.24,2.63s5.33-23,5.32-23.46-.62-.7-1.5-.7c-2,0-5.62,1.09-7.92,1.91-3.53,1.26-6.41,5.59-7,7.61s-4.56,17.78-4.56,17.78S66,51.73,63,52.84a.45.45,0,0,0-.3.42c0,.18,2.45,9.54,7.46,9.52,3.61,0,14.11-4.31,14.11-4.31S78.91,80,78.93,87.16c0,4.6,2.17,10,11.16,10,8.38,0,15.68-4.32,19.77-7.33A11.61,11.61,0,0,0,121,97c8.1,0,14.36-6.47,15.14-7.33,1,2.48,3.53,7.26,9.19,7.24,3.2,0,6.52-3.62,9-7.07a12.56,12.56,0,0,0,0,2.17c1,8.92,14.21,3.68,14.92,2.43.44-6.44.16-19.63,2.74-27.77,3.41,27.77,16.37,46.45,39.68,46.36,13-.05,19.69-3.79,22.48-6.88A9.52,9.52,0,0,0,236.17,96.92Zm-111.8-9.15c-11.19,0,3.42-29,13-29C137.35,62.5,137.14,87.72,124.37,87.77Z"/><path class="cls-1" d="M215.2,96.66c10.1,0,17.93-6.68,19.36-8.85,1.85-2.82-2.15-7.07-3.43-7-3.18,3.05-6.52,6.74-14,6.77-8.82,0-6.82-9.67-6.82-9.67s17,2.2,23.77-10c2.18-3.9,2.27-9.3,1.39-11.62s-5.8-6.63-13.66-6c-9.64.81-21.79,10.87-24.46,23C195.21,83,199.26,96.72,215.2,96.66ZM226,56c1.59-.05,1.45,2.56,1,5.3C226.41,65,221.3,74.39,211.58,74,212.24,68.55,219.47,56.19,226,56Z"/></g></svg>